<svg xmlns="http://www.w3.org/2000/svg" width="209.233" height="43.276" viewBox="0 0 209.233 43.276">
  <g id="Grupo_390" data-name="Grupo 390" transform="translate(-681.089 -305.588)">
    <text id="CONTROLE_IMOBILIÁRIO" data-name="CONTROLE IMOBILIÁRIO" transform="translate(758.917 347.841)" fill="#fff" font-size="9" font-family="Gotham-Light, Gotham" font-weight="300" letter-spacing="0.02em"><tspan x="-58.797" y="0">CONTROLE IMOBILIÁRIO</tspan></text>
    <g id="Camada_2" data-name="Camada 2" transform="translate(681.089 305.588)">
      <g id="Camada_1" data-name="Camada 1" transform="translate(0 0)">
        <rect id="Retângulo_201" data-name="Retângulo 201" width="6.594" height="30.766" transform="translate(114.859 1.49)" fill="#f9a364"/>
        <rect id="Retângulo_202" data-name="Retângulo 202" width="6.594" height="30.766" transform="translate(140.908 1.49)" fill="#f9a364"/>
        <path id="Caminho_398" data-name="Caminho 398" d="M324.1,38.644,315.9,24.39H299.409L291.18,38.644,299.409,52.9H315.9Zm-21.387,8.519-4.923-8.519,4.923-8.532h9.846l4.929,8.532-4.929,8.519Z" transform="translate(-114.868 -9.622)" fill="#f9a364"/>
        <rect id="Retângulo_203" data-name="Retângulo 203" width="6.594" height="66.382" transform="translate(181.24 25.661) rotate(90)" fill="#f9a364"/>
        <path id="Caminho_399" data-name="Caminho 399" d="M0,15.2C0,6.612,6.951,0,16,0A16.869,16.869,0,0,1,26.733,4.4L22.3,10.088a9.815,9.815,0,0,0-6.285-2.682,8,8,0,0,0-8.2,7.872,8.019,8.019,0,0,0,8.035,7.817,9.819,9.819,0,0,0,6.485-2.828l4.4,5.855a16,16,0,0,1-10.9,4.239C7.654,30.372,0,24.317,0,15.2Z" fill="#fff"/>
        <path id="Caminho_400" data-name="Caminho 400" d="M73.593,1.114V30.179H65.9V19.2H57.274V30.154H49.56V1.09h7.714v10.9H65.9V1.09Z" transform="translate(-19.551 -0.43)" fill="#fff"/>
        <path id="Caminho_401" data-name="Caminho 401" d="M114.775,26.547H103.93l-1.453,3.391H94L107.515.54h3.633l13.509,29.4h-8.423Zm-2.422-5.637-2.967-6.879-2.991,6.879Z" transform="translate(-37.082 -0.213)" fill="#fff"/>
        <path id="Caminho_402" data-name="Caminho 402" d="M164.221,1.13,150.839,30.473h-3.518L134,1.13h8.356l6.7,15.743L155.774,1.13Z" transform="translate(-52.862 -0.446)" fill="#fff"/>
        <rect id="Retângulo_204" data-name="Retângulo 204" width="20.309" height="5.922" transform="translate(114.859 13.691)" fill="#f9a364"/>
        <rect id="Retângulo_205" data-name="Retângulo 205" width="20.309" height="5.922" transform="translate(114.859 1.49)" fill="#f9a364"/>
        <rect id="Retângulo_206" data-name="Retângulo 206" width="20.309" height="5.922" transform="translate(140.908 13.691)" fill="#f9a364"/>
        <rect id="Retângulo_207" data-name="Retângulo 207" width="20.309" height="5.922" transform="translate(140.908 1.49)" fill="#f9a364"/>
      </g>
    </g>
  </g>
</svg>
